<?xml version="1.0" encoding="UTF-8"?>
<!-- Generator: Adobe Illustrator 15.1.0, SVG Export Plug-In . SVG Version: 6.00 Build 0)  -->
<!DOCTYPE svg PUBLIC "-//W3C//DTD SVG 1.1//EN" "http://www.w3.org/Graphics/SVG/1.1/DTD/svg11.dtd">
<svg version="1.1" id="Layer_1" xmlns="http://www.w3.org/2000/svg" xmlns:xlink="http://www.w3.org/1999/xlink" x="0px" y="0px" width="90px" height="45px" viewBox="0 0 90 45" enable-background="new 0 0 90 45" xml:space="preserve">
<g opacity="0.95">
	<path fill="#2F3131" d="M44.597,22.5c0,12.2-9.894,22.094-22.096,22.094c-12.205,0-22.099-9.894-22.099-22.094   c0-12.205,9.894-22.1,22.099-22.1C34.704,0.401,44.597,10.295,44.597,22.5z"/>
</g>
<path id="LinkedIn__x28_alt_x29__3_" fill="#F4F4F4" d="M17.03,32.649h-4.69V18.634h4.69V32.649z M14.685,16.719h-0.032  c-1.571,0-2.592-1.073-2.592-2.422c0-1.373,1.05-2.419,2.653-2.419c1.604,0,2.591,1.046,2.624,2.419  C17.338,15.646,16.319,16.719,14.685,16.719z M33.935,32.649h-4.689v-7.498c0-1.884-0.68-3.169-2.373-3.169  c-1.299,0-2.067,0.868-2.406,1.702c-0.124,0.301-0.155,0.72-0.155,1.137v7.828h-4.688c0,0,0.062-12.698,0-14.015h4.688v1.987  c0.624-0.955,1.734-2.317,4.225-2.317c3.085,0,5.399,2.002,5.399,6.31V32.649z M24.281,20.667c0.009-0.017,0.02-0.032,0.03-0.046  v0.046H24.281z"/>
<g>
	<path fill="#EE7B45" d="M89.443,22.5c0,12.2-9.894,22.094-22.096,22.094c-12.205,0-22.099-9.894-22.099-22.094   c0-12.205,9.894-22.1,22.099-22.1C79.55,0.401,89.443,10.295,89.443,22.5z"/>
</g>
<path id="LinkedIn__x28_alt_x29__1_" fill="#F4F4F4" d="M61.876,32.649h-4.69V18.634h4.69V32.649z M59.531,16.719h-0.032  c-1.571,0-2.592-1.073-2.592-2.422c0-1.373,1.05-2.419,2.653-2.419c1.604,0,2.591,1.046,2.624,2.419  C62.185,15.646,61.165,16.719,59.531,16.719z M78.781,32.649h-4.689v-7.498c0-1.884-0.68-3.169-2.373-3.169  c-1.299,0-2.067,0.868-2.406,1.702c-0.124,0.301-0.155,0.72-0.155,1.137v7.828H64.47c0,0,0.062-12.698,0-14.015h4.688v1.987  c0.624-0.955,1.734-2.317,4.225-2.317c3.085,0,5.399,2.002,5.399,6.31V32.649z M69.127,20.667c0.009-0.017,0.02-0.032,0.03-0.046  v0.046H69.127z"/>
</svg>