<?xml version="1.0" encoding="UTF-8"?>
<!-- Generator: Adobe Illustrator 16.0.0, SVG Export Plug-In . SVG Version: 6.00 Build 0)  -->
<!DOCTYPE svg PUBLIC "-//W3C//DTD SVG 1.1//EN" "http://www.w3.org/Graphics/SVG/1.1/DTD/svg11.dtd">
<svg version="1.1" id="Layer_1" xmlns="http://www.w3.org/2000/svg" xmlns:xlink="http://www.w3.org/1999/xlink" x="0px" y="0px" width="90px" height="45px" viewBox="0 0 90 45" enable-background="new 0 0 90 45" xml:space="preserve">
<g opacity="0.95">
	<path fill="#2F3131" d="M44.597,22.5c0,12.2-9.894,22.094-22.096,22.094C10.296,44.594,0.402,34.7,0.402,22.5   c0-12.205,9.894-22.1,22.099-22.1C34.704,0.401,44.597,10.295,44.597,22.5z"/>
</g>
<g>
	<path fill="#EE7B45" d="M89.443,22.5c0,12.2-9.895,22.094-22.096,22.094c-12.205,0-22.1-9.894-22.1-22.094   c0-12.205,9.895-22.1,22.1-22.1C79.55,0.401,89.443,10.295,89.443,22.5z"/>
</g>
<path id="Facebook__x28_alt_x29__2_" fill="#F4F4F4" d="M23.944,34.648V22.607h5.313v-5.312h-5.313v-2.117  c0-0.854,0.549-1.426,1.02-1.426h4.294V8.438h-4.295c-3.297,0-5.977,3.216-5.977,6.787v2.069H15.09v5.312h3.896v12.042H23.944z"/>
<path id="Facebook__x28_alt_x29__1_" fill="#F4F4F4" d="M68.79,34.648V22.607h5.312v-5.312H68.79v-2.117  c0-0.854,0.549-1.426,1.021-1.426h4.295V8.438h-4.295c-3.298,0-5.978,3.216-5.978,6.787v2.069h-3.896v5.313h3.896v12.042H68.79z"/>
</svg>