<?xml version="1.0" encoding="UTF-8"?>
<!-- Generator: Adobe Illustrator 15.1.0, SVG Export Plug-In . SVG Version: 6.00 Build 0)  -->
<!DOCTYPE svg PUBLIC "-//W3C//DTD SVG 1.1//EN" "http://www.w3.org/Graphics/SVG/1.1/DTD/svg11.dtd">
<svg version="1.1" id="Layer_1" xmlns="http://www.w3.org/2000/svg" xmlns:xlink="http://www.w3.org/1999/xlink" x="0px" y="0px" width="90px" height="45px" viewBox="0 0 90 45" enable-background="new 0 0 90 45" xml:space="preserve">
<g>
	<g opacity="0.95">
		<path fill="#2F3131" d="M44.598,22.506c0,12.19-9.894,22.074-22.095,22.074c-12.205,0-22.099-9.884-22.099-22.074    c0-12.192,9.894-22.078,22.099-22.078C34.704,0.428,44.598,10.313,44.598,22.506z"/>
	</g>
	<path id="Behance_3_" fill="#F4F4F4" d="M34.341,16.574h-6.67v-1.659h6.67V16.574z M23.231,23.362   c0.431,0.664,0.645,1.474,0.645,2.422c0,0.98-0.243,1.862-0.734,2.639c-0.314,0.516-0.704,0.951-1.172,1.301   c-0.529,0.407-1.152,0.681-1.87,0.831c-0.72,0.15-1.499,0.224-2.338,0.224h-7.458V14.229h7.998   c2.018,0.034,3.446,0.617,4.289,1.764c0.509,0.701,0.759,1.548,0.759,2.526c0,1.013-0.254,1.823-0.765,2.437   c-0.285,0.342-0.704,0.658-1.261,0.94C22.165,22.206,22.802,22.692,23.231,23.362z M14.122,20.753h3.504   c0.721,0,1.303-0.136,1.752-0.409c0.448-0.273,0.671-0.758,0.671-1.455c0-0.768-0.296-1.281-0.888-1.526   c-0.512-0.169-1.164-0.257-1.958-0.257h-3.082V20.753z M20.388,25.546c0-0.859-0.354-1.454-1.055-1.771   c-0.391-0.184-0.947-0.274-1.656-0.28h-3.556v4.41h3.501c0.719,0,1.274-0.094,1.677-0.293   C20.024,27.254,20.388,26.566,20.388,25.546z M36.816,22.857c0.079,0.541,0.117,1.326,0.102,2.351h-8.637   c0.047,1.191,0.459,2.026,1.239,2.501c0.47,0.301,1.041,0.443,1.711,0.443c0.703,0,1.278-0.176,1.721-0.542   c0.24-0.191,0.453-0.466,0.638-0.814h3.167c-0.084,0.705-0.467,1.417-1.151,2.144c-1.06,1.151-2.55,1.73-4.461,1.73   c-1.58,0-2.971-0.488-4.179-1.458c-1.205-0.976-1.811-2.556-1.811-4.749c0-2.055,0.543-3.63,1.633-4.728   c1.093-1.095,2.505-1.644,4.242-1.644c1.035,0,1.963,0.188,2.791,0.557c0.826,0.371,1.512,0.954,2.05,1.753   C36.357,21.111,36.671,21.924,36.816,22.857z M33.701,23.165c-0.06-0.825-0.336-1.447-0.83-1.874   c-0.494-0.428-1.106-0.641-1.841-0.641c-0.795,0-1.41,0.228-1.848,0.677c-0.439,0.451-0.714,1.064-0.826,1.837H33.701z"/>
	<g>
		<ellipse fill="#EE7B45" cx="67.347" cy="22.498" rx="22.097" ry="22.074"/>
	</g>
	<path id="Behance_1_" fill="#F4F4F4" d="M79.188,16.566h-6.67v-1.659h6.67V16.566z M68.078,23.354   c0.431,0.665,0.645,1.475,0.645,2.422c0,0.981-0.243,1.862-0.734,2.638c-0.313,0.517-0.704,0.951-1.172,1.302   c-0.529,0.407-1.152,0.681-1.87,0.83c-0.72,0.15-1.499,0.223-2.339,0.223H55.15V14.222h7.997c2.018,0.034,3.446,0.617,4.289,1.764   c0.508,0.702,0.759,1.548,0.759,2.526c0,1.013-0.254,1.822-0.765,2.437c-0.285,0.341-0.705,0.657-1.261,0.939   C67.012,22.197,67.648,22.683,68.078,23.354z M58.969,20.744h3.504c0.721,0,1.302-0.135,1.752-0.408   c0.447-0.273,0.671-0.758,0.671-1.455c0-0.768-0.295-1.281-0.888-1.527c-0.512-0.169-1.164-0.256-1.958-0.256h-3.082V20.744z    M65.234,25.538c0-0.859-0.353-1.454-1.055-1.771c-0.391-0.183-0.947-0.274-1.655-0.28h-3.556v4.41h3.501   c0.719,0,1.274-0.093,1.677-0.294C64.871,27.246,65.234,26.558,65.234,25.538z M81.663,22.849c0.079,0.541,0.116,1.326,0.101,2.352   h-8.637c0.048,1.191,0.46,2.026,1.24,2.5c0.47,0.302,1.041,0.443,1.711,0.443c0.703,0,1.278-0.176,1.721-0.542   c0.24-0.191,0.453-0.466,0.638-0.813h3.167c-0.084,0.705-0.467,1.417-1.151,2.144c-1.061,1.151-2.55,1.73-4.461,1.73   c-1.581,0-2.972-0.488-4.179-1.458c-1.205-0.976-1.811-2.557-1.811-4.749c0-2.054,0.543-3.63,1.633-4.728   c1.092-1.095,2.504-1.644,4.242-1.644c1.035,0,1.963,0.187,2.791,0.557c0.826,0.371,1.512,0.954,2.049,1.753   C81.204,21.103,81.518,21.917,81.663,22.849z M78.548,23.157c-0.06-0.826-0.337-1.448-0.831-1.875   c-0.493-0.428-1.106-0.641-1.84-0.641c-0.796,0-1.411,0.229-1.849,0.678c-0.439,0.451-0.714,1.063-0.826,1.837H78.548z"/>
</g>
<g>
	<g>
		<path fill="#2F3131" d="M45.643,55.286c-0.564,0.359-0.943,0.988-0.943,1.71l0.001,8.602c-0.001,0.691,0.349,1.302,0.878,1.666    l6.021-6.022L45.643,55.286z"/>
		<path fill="#2F3131" d="M65.561,65.595v-8.6c0-0.718-0.67-1.351-1.232-1.71l-5.898,5.9l6.029,6.026    C64.949,66.845,65.561,66.259,65.561,65.595z"/>
		<path fill="#2F3131" d="M63.41,67.585l-5.594-5.791l-1.824,1.825c-0.558,0.556-1.457,0.558-2.013,0.005l-1.825-1.83l-5.594,5.791    H63.41z"/>
		<path fill="#2F3131" d="M63.028,55.068l-7.12,7.12c-0.53,0.532-1.396,0.53-1.929,0l-7.09-7.092L63.028,55.068z"/>
	</g>
</g>
<g opacity="0.9">
	<g>
		<path fill="#EE7B46" d="M67.643,55.285c-0.564,0.359-0.943,0.988-0.943,1.71l0.001,8.602c-0.001,0.691,0.349,1.301,0.878,1.666    l6.021-6.023L67.643,55.285z"/>
		<path fill="#EE7B46" d="M87.561,65.595v-8.6c0-0.718-0.67-1.351-1.232-1.71l-5.898,5.9l6.029,6.027    C86.949,66.845,87.561,66.259,87.561,65.595z"/>
		<path fill="#EE7B46" d="M85.41,67.585l-5.594-5.792l-1.824,1.825c-0.558,0.557-1.457,0.559-2.013,0.006l-1.825-1.831l-5.594,5.792    H85.41z"/>
		<path fill="#EE7B46" d="M85.028,55.067l-7.12,7.12c-0.53,0.533-1.396,0.531-1.929,0l-7.09-7.092L85.028,55.067z"/>
	</g>
</g>
<g>
	<path fill="#2F3131" d="M60.671,84.541c0.385-0.385,0.385-1.01,0-1.395l-2.439-2.439c-0.387-0.387-1.013-0.389-1.396-0.003   l-1.555,1.556c-0.565,0.566-1.788,0.479-2.276-0.01l-3.752-3.752c-0.489-0.488-0.594-1.685-0.006-2.273l1.561-1.549   c0.386-0.386,0.385-1.008,0-1.396l-2.441-2.438c-0.385-0.385-1.009-0.385-1.396,0l-1.553,1.554   c-1.625,1.941-0.797,5.567,1.052,7.417l5.164,5.162c1.851,1.852,5.528,2.768,7.469,1.143L60.671,84.541z"/>
</g>
<g>
	<path fill="#EE7B46" d="M77.858,84.541c0.385-0.385,0.385-1.01,0-1.395l-2.439-2.439c-0.387-0.387-1.013-0.389-1.396-0.003   l-1.555,1.556c-0.565,0.566-1.788,0.479-2.276-0.01l-3.752-3.752c-0.489-0.488-0.594-1.685-0.006-2.273l1.561-1.549   c0.386-0.386,0.385-1.008,0-1.396l-2.441-2.438c-0.385-0.385-1.009-0.385-1.396,0l-1.553,1.554   c-1.625,1.941-0.797,5.567,1.052,7.417l5.164,5.162c1.851,1.852,5.528,2.768,7.469,1.143L77.858,84.541z"/>
</g>
</svg>